HIERARCHY
ROOT hips
{
  OFFSET 0 9.313263304106702 1.2146308026317778
  CHANNELS 6 Xposition Yposition Zposition Yrotation Xrotation Zrotation
  JOINT spine
  {
    OFFSET -6.402521e-31 0.5173342420023708 0
    CHANNELS 3 Yrotation Xrotation Zrotation
    JOINT chest
    {
      OFFSET 0 1.130544299341115 0
      CHANNELS 3 Yrotation Xrotation Zrotation
      JOINT upperChest
      {
        OFFSET 0 1.0863555061129995 0
        CHANNELS 3 Yrotation Xrotation Zrotation
        JOINT neck
        {
          OFFSET 0 1.3773706506454462 0
          CHANNELS 3 Yrotation Xrotation Zrotation
          JOINT head
          {
            OFFSET 0 0.7374408940073979 0
            CHANNELS 3 Yrotation Xrotation Zrotation
            JOINT leftEye
            {
              OFFSET 0.25066580148932727 0.6408406698778757 0.15963719178883284
              CHANNELS 3 Yrotation Xrotation Zrotation
              End Site
              {
                OFFSET 0.25066580148932727 0.6408406698778757 0.15963719178883284
              }
            }
            JOINT rightEye
            {
              OFFSET -0.25066576739704244 0.6408406384191823 0.15963727561643756
              CHANNELS 3 Yrotation Xrotation Zrotation
              End Site
              {
                OFFSET -0.25066576739704244 0.6408406384191823 0.15963727561643756
              }
            }
          }
        }
        JOINT leftShoulder
        {
          OFFSET 0.3761817444281191 1.0539491987447769 0
          CHANNELS 3 Yrotation Xrotation Zrotation
          JOINT leftUpperArm
          {
            OFFSET 0.8702844380000002 0 0
            CHANNELS 3 Yrotation Xrotation Zrotation
            JOINT leftLowerArm
            {
              OFFSET 2.198527310000323 0 0
              CHANNELS 3 Yrotation Xrotation Zrotation
              JOINT leftHand
              {
                OFFSET 2.146852313968281 0 0
                CHANNELS 3 Yrotation Xrotation Zrotation
                JOINT leftIndexProximal
                {
                  OFFSET 0.6585177834681599 0.07380250427007962 0.18382213159631788
                  CHANNELS 3 Yrotation Xrotation Zrotation
                  JOINT leftIndexIntermediate
                  {
                    OFFSET 0.3323021288626682 -0.009606893929485771 -0.012820872253340998
                    CHANNELS 3 Yrotation Xrotation Zrotation
                    JOINT leftIndexDistal
                    {
                      OFFSET 0.2045908926985518 -0.0071133989147997845 -0.006828784783599051
                      CHANNELS 3 Yrotation Xrotation Zrotation
                      End Site
                      {
                        OFFSET 0.2045908926985518 -0.0071133989147997845 -0.006828784783599051
                      }
                    }
                  }
                }
                JOINT leftLittleProximal
                {
                  OFFSET 0.6110054258835662 0.07380246363125398 -0.29175655876064077
                  CHANNELS 3 Yrotation Xrotation Zrotation
                  JOINT leftLittleIntermediate
                  {
                    OFFSET 0.3144281999999998 -2.5124724523095665e-9 1.8658118799974588e-7
                    CHANNELS 3 Yrotation Xrotation Zrotation
                    JOINT leftLittleDistal
                    {
                      OFFSET 0.18116185580251631 0.002815456192251098 0.0034826415518049436
                      CHANNELS 3 Yrotation Xrotation Zrotation
                      End Site
                      {
                        OFFSET 0.18116185580251631 0.002815456192251098 0.0034826415518049436
                      }
                    }
                  }
                }
                JOINT leftMiddleProximal
                {
                  OFFSET 0.6637478005691111 0.07380246480054087 0.02046981859247815
                  CHANNELS 3 Yrotation Xrotation Zrotation
                  JOINT leftMiddleIntermediate
                  {
                    OFFSET 0.3705733999999994 -2.9611069152224445e-9 9.35054791928458e-8
                    CHANNELS 3 Yrotation Xrotation Zrotation
                    JOINT leftMiddleDistal
                    {
                      OFFSET 0.22861063500000056 -1.82673876025774e-9 -1.6740782024515788e-7
                      CHANNELS 3 Yrotation Xrotation Zrotation
                      End Site
                      {
                        OFFSET 0.22861063500000056 -1.82673876025774e-9 -1.6740782024515788e-7
                      }
                    }
                  }
                }
                JOINT leftRingProximal
                {
                  OFFSET 0.6561845547265777 0.07380246406440083 -0.13588087571513918
                  CHANNELS 3 Yrotation Xrotation Zrotation
                  JOINT leftRingIntermediate
                  {
                    OFFSET 0.3437531000000005 -2.746796123886952e-9 1.4935781944558357e-7
                    CHANNELS 3 Yrotation Xrotation Zrotation
                    JOINT leftRingDistal
                    {
                      OFFSET 0.1983118991198174 -0.002467117924596085 -0.004538141969590015
                      CHANNELS 3 Yrotation Xrotation Zrotation
                      End Site
                      {
                        OFFSET 0.1983118991198174 -0.002467117924596085 -0.004538141969590015
                      }
                    }
                  }
                }
                JOINT leftThumbProximal
                {
                  OFFSET 0.09767004258864787 -0.14930060425447422 -0.07008212897521154
                  CHANNELS 3 Yrotation Xrotation Zrotation
                  JOINT leftThumbIntermediate
                  {
                    OFFSET 0.36682123028154767 -0.015768465060082004 0.28693641268151077
                    CHANNELS 3 Yrotation Xrotation Zrotation
                    JOINT leftThumbDistal
                    {
                      OFFSET 0.21091084272403915 -0.016756648201192714 0.1933767059105508
                      CHANNELS 3 Yrotation Xrotation Zrotation
                      End Site
                      {
                        OFFSET 0.21091084272403915 -0.016756648201192714 0.1933767059105508
                      }
                    }
                  }
                }
              }
            }
          }
        }
        JOINT rightShoulder
        {
          OFFSET -0.37618174442811925 1.0539491987447769 0
          CHANNELS 3 Yrotation Xrotation Zrotation
          JOINT rightUpperArm
          {
            OFFSET -0.870284438 0 0
            CHANNELS 3 Yrotation Xrotation Zrotation
            JOINT rightLowerArm
            {
              OFFSET -2.1985273100003235 0 0
              CHANNELS 3 Yrotation Xrotation Zrotation
              JOINT rightHand
              {
                OFFSET -2.1468523139682802 0 0
                CHANNELS 3 Yrotation Xrotation Zrotation
                JOINT rightIndexProximal
                {
                  OFFSET -0.6585177834681599 0.07380250427007962 0.18382213159631788
                  CHANNELS 3 Yrotation Xrotation Zrotation
                  JOINT rightIndexIntermediate
                  {
                    OFFSET -0.3323021288626682 -0.009606893929485771 -0.012820872253340998
                    CHANNELS 3 Yrotation Xrotation Zrotation
                    JOINT rightIndexDistal
                    {
                      OFFSET -0.2045908926985518 -0.0071133989147997845 -0.006828784783599051
                      CHANNELS 3 Yrotation Xrotation Zrotation
                      End Site
                      {
                        OFFSET -0.2045908926985518 -0.0071133989147997845 -0.006828784783599051
                      }
                    }
                  }
                }
                JOINT rightLittleProximal
                {
                  OFFSET -0.6110054258835662 0.07380246363125398 -0.29175655876064077
                  CHANNELS 3 Yrotation Xrotation Zrotation
                  JOINT rightLittleIntermediate
                  {
                    OFFSET -0.3144281999999998 -2.5124724523095665e-9 1.8658118799974588e-7
                    CHANNELS 3 Yrotation Xrotation Zrotation
                    JOINT rightLittleDistal
                    {
                      OFFSET -0.18116185580251631 0.002815456192251098 0.0034826415518049436
                      CHANNELS 3 Yrotation Xrotation Zrotation
                      End Site
                      {
                        OFFSET -0.18116185580251631 0.002815456192251098 0.0034826415518049436
                      }
                    }
                  }
                }
                JOINT rightMiddleProximal
                {
                  OFFSET -0.6637478005691111 0.07380246480054087 0.02046981859247815
                  CHANNELS 3 Yrotation Xrotation Zrotation
                  JOINT rightMiddleIntermediate
                  {
                    OFFSET -0.3705733999999994 -2.9611069152224445e-9 9.35054791928458e-8
                    CHANNELS 3 Yrotation Xrotation Zrotation
                    JOINT rightMiddleDistal
                    {
                      OFFSET -0.22861063500000056 -1.82673876025774e-9 -1.6740782024515788e-7
                      CHANNELS 3 Yrotation Xrotation Zrotation
                      End Site
                      {
                        OFFSET -0.22861063500000056 -1.82673876025774e-9 -1.6740782024515788e-7
                      }
                    }
                  }
                }
                JOINT rightRingProximal
                {
                  OFFSET -0.6561845547265777 0.07380246406440083 -0.13588087571513918
                  CHANNELS 3 Yrotation Xrotation Zrotation
                  JOINT rightRingIntermediate
                  {
                    OFFSET -0.3437531000000005 -2.746796123886952e-9 1.4935781944558357e-7
                    CHANNELS 3 Yrotation Xrotation Zrotation
                    JOINT rightRingDistal
                    {
                      OFFSET -0.1983118991198174 -0.002467117924596085 -0.004538141969590015
                      CHANNELS 3 Yrotation Xrotation Zrotation
                      End Site
                      {
                        OFFSET -0.1983118991198174 -0.002467117924596085 -0.004538141969590015
                      }
                    }
                  }
                }
                JOINT rightThumbProximal
                {
                  OFFSET -0.09767004258864787 -0.14930060425447422 -0.07008212897521154
                  CHANNELS 3 Yrotation Xrotation Zrotation
                  JOINT rightThumbIntermediate
                  {
                    OFFSET -0.36682123028154767 -0.015768465060082004 0.28693641268151077
                    CHANNELS 3 Yrotation Xrotation Zrotation
                    JOINT rightThumbDistal
                    {
                      OFFSET -0.21091084272403915 -0.016756648201192714 0.1933767059105508
                      CHANNELS 3 Yrotation Xrotation Zrotation
                      End Site
                      {
                        OFFSET -0.21091084272403915 -0.016756648201192714 0.1933767059105508
                      }
                    }
                  }
                }
              }
            }
          }
        }
      }
    }
  }
  JOINT leftUpperLeg
  {
    OFFSET 0.7715603 -0.3993844658041501 0
    CHANNELS 3 Yrotation Xrotation Zrotation
    JOINT leftLowerLeg
    {
      OFFSET 0 -3.529830000249343 0
      CHANNELS 3 Yrotation Xrotation Zrotation
      JOINT leftFoot
      {
        OFFSET 0 -4.154939295409685 0.004208579085223096
        CHANNELS 3 Yrotation Xrotation Zrotation
        JOINT leftToes
        {
          OFFSET 0 -0.6353414391261847 1.10414981190622
          CHANNELS 3 Yrotation Xrotation Zrotation
          End Site
          {
            OFFSET 0 -0.6015820691747853 1.10414981190622
          }
        }
      }
    }
  }
  JOINT rightUpperLeg
  {
    OFFSET -0.7715603 -0.3993844658041501 0
    CHANNELS 3 Yrotation Xrotation Zrotation
    JOINT rightLowerLeg
    {
      OFFSET 0 -3.529830000249343 0
      CHANNELS 3 Yrotation Xrotation Zrotation
      JOINT rightFoot
      {
        OFFSET 0 -4.154939295409685 0.004208579085223096
        CHANNELS 3 Yrotation Xrotation Zrotation
        JOINT rightToes
        {
          OFFSET 0 -0.6353414391261847 1.10414981190622
          CHANNELS 3 Yrotation Xrotation Zrotation
          End Site
          {
            OFFSET 0 -0.6015820691747853 1.10414981190622
          }
        }
      }
    }
  }
}
MOTION
Frames: 4
Frame Time: 0.03333333333333333
0.09676051410761746 8.101791035045276 1.2247012486637925 8.246727671740253 8.963895798763998 5.726873015035089 -1.8953908116210125 1.5479002933966004 -2.3066100239005496 -8.428863236987208 7.728384715596345 -4.804600332010378 0 0 0 -0.22688728241641928 -0.10706296404969479 2.2823508406504622 -3.1214208556426675 -28.499681008694473 7.127331390656934 0 0 0 0 0 0 4.313092231981606 0.645245708155168 -10.69905675883556 -29.199776601735024 -9.816421484781575 -53.8443544357346 -99.75475719082102 -0.00006396637451297732 0.00010036728932324685 -8.373815924237189 -31.57522098443582 0.6518759186386406 3.0955383370577483 0.7314031372397859 -26.623755323615754 2.4646128958708875 0.4521795987495614 -20.772858142638874 1.239373951771183 0.1132608052213029 -10.388794496134052 6.946308003083893 2.6344422789825455 -26.000850122271032 -1.6437092028341969 0.5297585141921682 -21.281221300144175 1.2359368193855567 0.1498669943812841 -10.388342470321811 3.095172134379712 0.7311928249879596 -26.60788103501 2.457347570777846 0.44993068927787233 -20.788872939255015 1.249352102487894 0.11358698741394814 -10.388800990422617 3.1007267372962084 0.7339905497522069 -26.623692736156272 2.4530208494197048 0.4499542221396204 -20.772901636058688 1.2469525539389443 0.11349752776841927 -10.388791976796563 4.339230299698631 -1.3326221790418618 6.178079957355288 21.711765410373264 4.413194953194883 3.4119265211188887 8.184412868664891 -0.16610407000500357 3.1089362461957446 -0.8437832589899935 0.46279405109352945 11.289556350023748 6.413794701291384 24.201773672720957 63.98257210566324 82.19812813127409 0.000031468852990723774 -0.000004055503392117915 -16.716957212978798 5.206915465571678 20.34262124456282 -3.147135846287953 0.7491762927807302 26.6196132295355 -2.4483824051102103 0.45029259374970315 20.769886150805508 -1.2692220975118058 0.1143674181120768 10.387305399976928 -3.077050039051545 0.7140231919949077 26.619910642400523 -2.390168496670025 0.3984998210553049 20.77089521222304 -1.3176495388536995 0.09647733473131023 10.387485953258285 -3.181739799216717 0.7665045577831128 26.619156750584132 -2.382193487031432 0.4398600454704318 20.770098501875626 -1.2960647247637611 0.11389598738169021 10.38731043867598 -3.1143215274750635 0.732739722260711 26.61993530676383 -2.5019130037989816 0.45667827358714164 20.769752034032592 -1.2716802354594527 0.11812831210550007 10.387264250595242 -4.335667842862247 -1.6146085165742552 -6.622454674732237 -22.301634860873442 5.107994179928922 -3.129024858627321 -6.379610658224795 -0.8952636675830161 -2.6359570235291363 5.64375979284471 -17.626806843493647 -10.60502615171987 -5.46980787623894 42.11455450476698 1.2702592853414278 -3.6388897454158364 -32.417091176426695 3.954096132723305 0.0000013961819071165612 -6.198077093824531 -0.000001972712456690626 -6.771629544899645 -46.24779633945193 -2.193935672186385 -159.95368695571477 66.01802095192103 -162.0874291576333 -1.3737623859658183 0.8274841991834809 -6.393594846105359 0.000001004322828436964 -0.49378583398957154 0.00000353322243151095
0.0937987593087283 8.310878060080787 1.2606866173910756 9.098543252192092 10.0929567738819 4.906994461017286 -2.47386888078465 1.3322582663462306 -1.6267493192104663 -10.483136703104615 6.960479859507074 -3.331967749497763 0 0 0 0.1551591068595365 -0.007807567419805416 2.190509980372473 -0.660957442370084 -28.535278899200488 5.6030660477282455 0 0 0 0 0 0 4.6516045895750455 0.6332530171705238 -10.49859112316879 -33.94893899299994 -11.33141383217058 -49.718571460530804 -101.78221702592462 -0.00007989603515914049 0.00008648587250889383 -8.655732333420044 -33.436916894472596 0.9924496055172249 3.0955383370577483 0.7314031372397859 -26.623755323615754 2.4646128958708875 0.4521795987495614 -20.772858142638874 1.239373951771183 0.1132608052213029 -10.388794496134052 6.946308003083893 2.6344422789825455 -26.000850122271032 -1.6437092028341969 0.5297585141921682 -21.281221300144175 1.2359368193855567 0.1498669943812841 -10.388342470321811 3.095172134379712 0.7311928249879596 -26.60788103501 2.457347570777846 0.44993068927787233 -20.788872939255015 1.249352102487894 0.11358698741394814 -10.388800990422617 3.1007267372962084 0.7339905497522069 -26.623692736156272 2.4530208494197048 0.4499542221396204 -20.772901636058688 1.2469525539389443 0.11349752776841927 -10.388791976796563 4.339230299698631 -1.3326221790418618 6.178079957355288 21.711765410373264 4.413194953194883 3.4119265211188887 8.184412868664891 -0.16610407000500357 3.1089362461957446 -0.7751275045434536 0.4754666646159674 11.296502248521387 3.476591011200187 30.413048250859273 62.575295784619634 84.15086015318624 0.000010906169024058876 -0.000026773040940796586 -24.12882497842791 2.994452427936766 23.582026301524664 -3.147135846287953 0.7491762927807302 26.6196132295355 -2.4483824051102103 0.45029259374970315 20.769886150805508 -1.2692220975118058 0.1143674181120768 10.387305399976928 -3.077050039051545 0.7140231919949077 26.619910642400523 -2.390168496670025 0.3984998210553049 20.77089521222304 -1.3176495388536995 0.09647733473131023 10.387485953258285 -3.181739799216717 0.7665045577831128 26.619156750584132 -2.382193487031432 0.4398600454704318 20.770098501875626 -1.2960647247637611 0.11389598738169021 10.38731043867598 -3.1143215274750635 0.732739722260711 26.61993530676383 -2.5019130037989816 0.45667827358714164 20.769752034032592 -1.2716802354594527 0.11812831210550007 10.387264250595242 -4.335667842862247 -1.6146085165742552 -6.622454674732237 -22.301634860873442 5.107994179928922 -3.129024858627321 -6.379610658224795 -0.8952636675830161 -2.6359570235291363 6.959901315039693 -12.22852918019747 -8.588863176808525 -5.707042937616336 36.01095019598979 2.7635639374592134 -2.985471245533436 -21.82365826372768 1.615341230178745 0.000006584387189629324 -14.381978424819287 -0.000005304976639187846 -5.242450751946302 -51.08084240275966 -2.676619065060231 -149.19078764457174 73.65114814912496 -149.58037314897112 -0.5100341849621834 -0.29606741977208073 -7.568694817420202 -0.000004598678091597667 -0.5077678186628424 -9.127924542594213e-8
0.08882102641192349 8.547763824462889 1.2972167971246553 8.66821157905598 11.280963709493586 3.5101090975077707 -2.8459388624390334 1.1531389630553972 -0.7432316424732969 -11.80109294638111 6.19024624202841 -1.5913965303831143 0 0 0 0.54518116433726 0.25855606106540524 2.182222556178815 1.940926181603694 -28.509390629169978 3.8778872319773594 0 0 0 0 0 0 5.075923285502581 0.6289020828331472 -10.414997236838161 -36.811638767801156 -10.964728455450219 -46.26480285296845 -104.01472718306898 -0.00007479548800977634 0.00007491710672117758 -9.190535281059395 -34.475915910117536 1.2392949604235348 3.0955383370577483 0.7314031372397859 -26.623755323615754 2.4646128958708875 0.4521795987495614 -20.772858142638874 1.239373951771183 0.1132608052213029 -10.388794496134052 6.946308003083893 2.6344422789825455 -26.000850122271032 -1.6437092028341969 0.5297585141921682 -21.281221300144175 1.2359368193855567 0.1498669943812841 -10.388342470321811 3.095172134379712 0.7311928249879596 -26.60788103501 2.457347570777846 0.44993068927787233 -20.788872939255015 1.249352102487894 0.11358698741394814 -10.388800990422617 3.100726524147788 0.7339905497522069 -26.623692736156272 2.4530208494197048 0.4499542221396204 -20.772901636058688 1.2469525539389443 0.11349752776841927 -10.388791976796563 4.339230299698631 -1.3326221790418618 6.178079957355288 21.711765410373264 4.413194953194883 3.4119265211188887 8.184412868664891 -0.16610407000500357 3.1089362461957446 -0.6273109954814227 0.502702556214326 11.3050499385016 1.5284237728016172 35.40402067820889 59.90758848248944 86.28472645149209 -0.0000029830567899628564 -0.000004505387101368063 -28.804177699082445 -1.4193919987049861 25.031520326216775 -3.147135846287953 0.7491762927807302 26.6196132295355 -2.4483824051102103 0.45029259374970315 20.769886150805508 -1.2692220975118058 0.1143674181120768 10.387305399976928 -3.077050039051545 0.7140231919949077 26.619910642400523 -2.390168496670025 0.3984998210553049 20.77089521222304 -1.3176495388536995 0.09647733473131023 10.387485953258285 -3.181739799216717 0.7665045577831128 26.619156750584132 -2.382193487031432 0.4398600454704318 20.770098501875626 -1.2960647247637611 0.11389598738169021 10.38731043867598 -3.1143215274750635 0.732739722260711 26.61993530676383 -2.5019130037989816 0.45667827358714164 20.769752034032592 -1.2716802354594527 0.11812831210550007 10.387264250595242 -4.335667842862247 -1.6146085165742552 -6.622454674732237 -22.301634860873442 5.107994179928922 -3.129024858627321 -6.379610658224795 -0.8952636675830161 -2.6359570235291363 8.249802301307275 -7.049506132956936 -5.405510876035959 -7.374417787777647 28.32270131773661 2.064915892530628 -2.4889460228291713 -6.672275423085139 -2.110303843793099 -0.21928404531188964 -23.900414957652796 2.403583866537519 -3.0816964731057097 -52.89702862377719 -2.7918696369615863 -95.95859406857849 81.13421239665838 -93.88782948115758 -0.5007817552280828 -0.36147759332875185 -8.114408863978875 -0.000003045434690330101 -0.47057304083257107 -0.000004139104448733812
0.08605065670880403 8.75928445295854 1.3232569691596994 7.440113608662915 12.066697842396316 2.1559279339734845 -2.9856282226159676 1.0913834845611505 0.10198606161046152 -12.511003910630025 5.6764783333705955 -0.21107627000591794 0 0 0 0.9040425582039691 0.4630357836468133 2.2308850868188417 4.374938741799015 -28.46732529316098 2.2844792658755653 0 0 0 0 0 0 5.5335406899913275 0.6302658551218231 -10.439590106481122 -37.97046637740596 -9.460635876942359 -43.77212016891057 -106.47245467159838 -0.00007699334676219887 0.00010607240607710438 -9.972215739035343 -34.86629991468682 1.6301144046262361 3.0955383370577483 0.7314031372397859 -26.623755323615754 2.4646128958708875 0.4521795987495614 -20.772858142638874 1.239373951771183 0.1132608052213029 -10.388794496134052 6.946308003083893 2.6344422789825455 -26.000850122271032 -1.6437092028341969 0.5297585141921682 -21.281221300144175 1.2359368193855567 0.1498669943812841 -10.388342470321811 3.095172134379712 0.7311928249879596 -26.60788103501 2.457347570777846 0.44993068927787233 -20.788872939255015 1.249352102487894 0.11358698741394814 -10.388800990422617 3.100726524147788 0.7339905497522069 -26.623692736156272 2.4530208494197048 0.4499542221396204 -20.772901636058688 1.2469525539389443 0.11349752776841927 -10.388791976796563 4.339230299698631 -1.3326221790418618 6.178079957355288 21.711765410373264 4.413194953194883 3.4119265211188887 8.184412868664891 -0.16610407000500357 3.1089362461957446 -0.3258260546465365 0.5559479158293839 11.375392413792738 0.5429920214275482 38.59621692955096 57.18097275757644 87.62324840079921 0.00003021535822410264 -0.000023560537816558322 -30.069776091307432 -6.286588391997417 25.138826127574124 -3.147135846287953 0.7491762927807302 26.6196132295355 -2.4483824051102103 0.45029259374970315 20.769886150805508 -1.2692220975118058 0.1143674181120768 10.387305399976928 -3.077050039051545 0.7140231919949077 26.619910642400523 -2.390168496670025 0.3984998210553049 20.77089521222304 -1.3176495388536995 0.09647733473131023 10.387485953258285 -3.181739799216717 0.7665045577831128 26.619156750584132 -2.382193487031432 0.4398600454704318 20.770098501875626 -1.2960647247637611 0.11389598738169021 10.38731043867598 -3.1143215274750635 0.732739722260711 26.61993530676383 -2.5019130037989816 0.45667827358714164 20.769752034032592 -1.2716802354594527 0.11812831210550007 10.387264250595242 -4.335667842862247 -1.6146085165742552 -6.622454674732237 -22.301634860873442 5.107994179928922 -3.129024858627321 -6.379610658224795 -0.8952636675830161 -2.6359570235291363 8.933149966431039 -2.2806946232346434 -2.3360656759734675 -6.18640575852899 22.410455657648505 1.8978464703003022 -2.458974962839768 3.9844699876364005 -6.640763295292861 -0.18530000790941895 -22.71010816262032 4.628471667253392 -1.5140425746014958 -51.83807176436357 -2.119636410955132 -30.58972406187256 71.9322604949389 -26.0184108236866 -1.294305925059166 -0.582150347619292 -7.019809655737828 1.1705674816557611e-7 -0.48951019160166975 0.000002913242152327901
